{"accessors" : [{"bufferView" : 0, "byteOffset" : 0, "componentType" : 5123, "count" : 29496, "type" : "SCALAR", "max" : [4954], "min" : [0]}, {"bufferView" : 1, "byteOffset" : 0, "componentType" : 5126, "count" : 4955, "type" : "VEC3", "max" : [346.39898681640625, 114.95999908447266, -2137.6201171875], "min" : [-173.6510009765625, -1.9310100078582764, -2684.8701171875], "name" : "POSITION"}], "asset" : {"generator" : "Aspose.3D 24.9.1", "version" : "2.0"}, "buffers" : [{"uri" : "data:application/octet-stream;base64,", "byteLength" : 118460}], "bufferViews" : [{"buffer" : 0, "byteOffset" : 0, "byteLength" : 58992, "target" : 34963}, {"buffer" : 0, "byteOffset" : 58996, "byteLength" : 59460, "byteStride" : 12, "target" : 34962}], "meshes" : [{"primitives" : [{"attributes" : {"POSITION" : 1}, "indices" : 0, "mode" : 4}], "name" : ""}], "nodes" : [{"mesh" : 0, "name" : "FEMUR"}], "scene" : 0, "scenes" : [{"nodes" : [0]}]}