{"accessors" : [{"bufferView" : 0, "byteOffset" : 0, "componentType" : 5123, "count" : 299712, "type" : "SCALAR", "max" : [59311], "min" : [0]}, {"bufferView" : 1, "byteOffset" : 0, "componentType" : 5126, "count" : 59312, "type" : "VEC3", "max" : [29.446800231933594, 16.739200592041016, 30.17180061340332], "min" : [-29.446800231933594, -16.739599227905273, -30.14859962463379], "name" : "POSITION"}, {"bufferView" : 1, "byteOffset" : 12, "componentType" : 5126, "count" : 59312, "type" : "VEC2", "max" : [0.9940999746322632, 0.993399977684021], "min" : [0.0034000000450760126, 0.0026000142097473145], "name" : "TEXCOORD_0"}, {"bufferView" : 1, "byteOffset" : 20, "componentType" : 5126, "count" : 59312, "type" : "VEC3", "max" : [0.9999716281890869, 1.0000042915344238, 0.9999664425849915], "min" : [-0.9999716281890869, -0.9999992847442627, -0.9999812841415405], "name" : "NORMAL"}], "asset" : {"generator" : "Aspose.3D 24.9.1", "version" : "2.0"}, "buffers" : [{"uri" : "data:application/octet-stream;base64,", "byteLength" : 2497416}], "bufferViews" : [{"buffer" : 0, "byteOffset" : 0, "byteLength" : 599424, "target" : 34963}, {"buffer" : 0, "byteOffset" : 599428, "byteLength" : 1897984, "byteStride" : 32, "target" : 34962}], "meshes" : [{"primitives" : [{"attributes" : {"POSITION" : 1, "TEXCOORD_0" : 2, "NORMAL" : 3}, "indices" : 0, "mode" : 4}], "name" : ""}], "nodes" : [{"mesh" : 0, "name" : "12700_RibCage"}], "scene" : 0, "scenes" : [{"nodes" : [0]}]}